<?xml version="1.0" encoding="utf-8"?>
<!-- Generator: Adobe Illustrator 22.0.1, SVG Export Plug-In . SVG Version: 6.00 Build 0)  -->
<svg version="1.1" xmlns="http://www.w3.org/2000/svg" xmlns:xlink="http://www.w3.org/1999/xlink" x="0px" y="0px"
	 width="1700.8px" height="850.4px" viewBox="0 0 1700.8 850.4" style="enable-background:new 0 0 1700.8 850.4;"
	 xml:space="preserve">
<style type="text/css">
	.st0{fill:none;stroke:#010202;stroke-width:0.2835;}
	.st1{fill:none;stroke:#B9529F;stroke-width:0.2835;}
	.st2{fill:none;stroke:#ED2024;stroke-width:2.834646e-02;stroke-miterlimit:10;}
	.st3{fill:none;stroke:#ED2024;stroke-width:3.543310e-02;}
	.st4{fill:none;stroke:#ED2024;stroke-width:2.834646e-02;stroke-linecap:round;stroke-linejoin:round;stroke-miterlimit:10;}
</style>
<g id="outline">
	<rect class="st0" width="1700.8" height="850.4"/>
	<rect x="14.2" y="14.2" class="st1" width="1672" height="822"/>
</g>
<g id="Cut">
	<g>
		<circle class="st2" cx="217.8" cy="708.6" r="9.6"/>
		<circle class="st2" cx="122.1" cy="708.6" r="9.6"/>
		<circle class="st2" cx="313.6" cy="708.6" r="9.6"/>
		<circle class="st2" cx="409.3" cy="708.6" r="9.6"/>
		<circle class="st2" cx="505" cy="708.6" r="9.6"/>
		<circle class="st2" cx="600.7" cy="708.6" r="9.6"/>
	</g>
	<g transform="translate(22.500018499999996, 22.500018499999996) ">
		<polygon class="st3" points="-8.3,357.3 45.5,357.3 45.5,365.8 99.4,365.8 99.4,357.3 136.2,357.3 136.2,365.8 173.1,365.8 
			173.1,357.3 209.9,357.3 209.9,365.8 246.8,365.8 246.8,357.3 283.6,357.3 283.6,365.8 320.5,365.8 320.5,357.3 357.3,357.3 
			357.3,365.8 394.2,365.8 394.2,357.3 431,357.3 431,365.8 467.9,365.8 467.9,357.3 504.7,357.3 504.7,365.8 541.6,365.8 
			541.6,357.3 578.4,357.3 578.4,365.8 632.3,365.8 632.3,357.3 686.2,357.3 686.2,395.8 677.7,395.8 677.7,434.4 686.2,434.4 
			686.2,472.9 677.7,472.9 677.7,511.5 686.2,511.5 686.2,550.1 632.3,550.1 632.3,541.5 578.4,541.5 578.4,550.1 541.6,550.1 
			541.6,541.5 504.7,541.5 504.7,550.1 467.9,550.1 467.9,541.5 431,541.5 431,550.1 394.2,550.1 394.2,541.5 357.3,541.5 
			357.3,550.1 320.5,550.1 320.5,541.5 283.6,541.5 283.6,550.1 246.8,550.1 246.8,541.5 209.9,541.5 209.9,550.1 173.1,550.1 
			173.1,541.5 136.2,541.5 136.2,550.1 99.4,550.1 99.4,541.5 45.5,541.5 45.5,550.1 -8.3,550.1 -8.3,511.5 0.2,511.5 0.2,472.9 
			-8.3,472.9 -8.3,434.4 0.2,434.4 0.2,395.8 -8.3,395.8 		"/>
	</g>
	<g transform="translate(890.6109685, 22.500018499999996) ">
		<polygon class="st3" points="-173.4,357.3 -119.6,357.3 -119.6,365.8 -65.7,365.8 -65.7,357.3 -28.9,357.3 -28.9,365.8 8,365.8 
			8,357.3 44.8,357.3 44.8,365.8 81.7,365.8 81.7,357.3 118.5,357.3 118.5,365.8 155.4,365.8 155.4,357.3 192.2,357.3 192.2,365.8 
			229.1,365.8 229.1,357.3 265.9,357.3 265.9,365.8 302.8,365.8 302.8,357.3 339.6,357.3 339.6,365.8 376.5,365.8 376.5,357.3 
			413.3,357.3 413.3,365.8 467.2,365.8 467.2,357.3 521,357.3 521,395.8 512.5,395.8 512.5,434.4 521,434.4 521,472.9 512.5,472.9 
			512.5,511.5 521,511.5 521,550.1 467.2,550.1 467.2,541.5 413.3,541.5 413.3,550.1 376.5,550.1 376.5,541.5 339.6,541.5 
			339.6,550.1 302.8,550.1 302.8,541.5 265.9,541.5 265.9,550.1 229.1,550.1 229.1,541.5 192.2,541.5 192.2,550.1 155.4,550.1 
			155.4,541.5 118.5,541.5 118.5,550.1 81.7,550.1 81.7,541.5 44.8,541.5 44.8,550.1 8,550.1 8,541.5 -28.9,541.5 -28.9,550.1 
			-65.7,550.1 -65.7,541.5 -119.6,541.5 -119.6,550.1 -173.4,550.1 -173.4,511.5 -164.9,511.5 -164.9,472.9 -173.4,472.9 
			-173.4,434.4 -164.9,434.4 -164.9,395.8 -173.4,395.8 		"/>
	</g>
	<g transform="translate(1758.7219185000001, 22.500018499999996) ">
		<polygon class="st3" points="-330.1,357.3 -284,357.3 -284,365.8 -229.4,365.8 -229.4,357.3 -192.6,357.3 -192.6,365.8 
			-138,365.8 -138,357.3 -92,357.3 -92,395.8 -83.4,395.8 -83.4,434.4 -92,434.4 -92,472.9 -83.4,472.9 -83.4,511.5 -92,511.5 
			-92,550.1 -138,550.1 -138,541.5 -192.6,541.5 -192.6,550.1 -229.4,550.1 -229.4,541.5 -284,541.5 -284,550.1 -330.1,550.1 
			-330.1,511.5 -338.6,511.5 -338.6,472.9 -330.1,472.9 -330.1,434.4 -338.6,434.4 -338.6,395.8 -330.1,395.8 		"/>
	</g>
	<g transform="translate(22.500018499999996, 263.4450985) ">
		<polygon class="st3" points="0.2,326.1 45.5,326.1 45.5,317.6 99.4,317.6 99.4,326.1 136.2,326.1 136.2,317.6 173.1,317.6 
			173.1,326.1 209.9,326.1 209.9,317.6 246.8,317.6 246.8,326.1 283.6,326.1 283.6,317.6 320.5,317.6 320.5,326.1 357.3,326.1 
			357.3,317.6 394.2,317.6 394.2,326.1 431,326.1 431,317.6 467.9,317.6 467.9,326.1 504.7,326.1 504.7,317.6 541.6,317.6 
			541.6,326.1 578.4,326.1 578.4,317.6 632.3,317.6 632.3,326.1 677.7,326.1 677.7,372.2 686.2,372.2 686.2,426.7 677.7,426.7 
			677.7,463.6 686.2,463.6 686.2,518.2 677.7,518.2 677.7,564.2 632.3,564.2 632.3,572.7 578.4,572.7 578.4,564.2 541.6,564.2 
			541.6,572.7 504.7,572.7 504.7,564.2 467.9,564.2 467.9,572.7 431,572.7 431,564.2 394.2,564.2 394.2,572.7 357.3,572.7 
			357.3,564.2 320.5,564.2 320.5,572.7 283.6,572.7 283.6,564.2 246.8,564.2 246.8,572.7 209.9,572.7 209.9,564.2 173.1,564.2 
			173.1,572.7 136.2,572.7 136.2,564.2 99.4,564.2 99.4,572.7 45.5,572.7 45.5,564.2 0.2,564.2 0.2,518.2 -8.3,518.2 -8.3,463.6 
			0.2,463.6 0.2,426.7 -8.3,426.7 -8.3,372.2 0.2,372.2 		"/>
	</g>
	<g transform="translate(890.6109685, 263.4450985) ">
		<polygon class="st3" points="-164.9,326.1 -119.6,326.1 -119.6,317.6 -65.7,317.6 -65.7,326.1 -28.9,326.1 -28.9,317.6 8,317.6 
			8,326.1 44.8,326.1 44.8,317.6 81.7,317.6 81.7,326.1 118.5,326.1 118.5,317.6 155.4,317.6 155.4,326.1 192.2,326.1 192.2,317.6 
			229.1,317.6 229.1,326.1 265.9,326.1 265.9,317.6 302.8,317.6 302.8,326.1 339.6,326.1 339.6,317.6 376.5,317.6 376.5,326.1 
			413.3,326.1 413.3,317.6 467.2,317.6 467.2,326.1 512.5,326.1 512.5,372.2 521,372.2 521,426.7 512.5,426.7 512.5,463.6 
			521,463.6 521,518.2 512.5,518.2 512.5,564.2 467.2,564.2 467.2,572.7 413.3,572.7 413.3,564.2 376.5,564.2 376.5,572.7 
			339.6,572.7 339.6,564.2 302.8,564.2 302.8,572.7 265.9,572.7 265.9,564.2 229.1,564.2 229.1,572.7 192.2,572.7 192.2,564.2 
			155.4,564.2 155.4,572.7 118.5,572.7 118.5,564.2 81.7,564.2 81.7,572.7 44.8,572.7 44.8,564.2 8,564.2 8,572.7 -28.9,572.7 
			-28.9,564.2 -65.7,564.2 -65.7,572.7 -119.6,572.7 -119.6,564.2 -164.9,564.2 -164.9,518.2 -173.4,518.2 -173.4,463.6 
			-164.9,463.6 -164.9,426.7 -173.4,426.7 -173.4,372.2 -164.9,372.2 		"/>
	</g>
	<g id="LWPOLYLINE_3_">
		<rect x="1510.6" y="697.5" class="st2" width="39.6" height="36.8"/>
	</g>
	<g id="LWPOLYLINE_2_">
		<polygon class="st4" points="1474.6,581.1 1474.6,589.5 1529.1,589.5 1529.1,581.1 1565.9,581.1 1565.9,589.5 1620.4,589.5 
			1620.4,581.1 1666.3,581.1 1666.3,619.5 1674.8,619.5 1674.8,658 1666.3,658 1666.3,696.5 1674.8,696.5 1674.8,735 1666.3,735 
			1666.3,773.5 1620.4,773.5 1620.4,765 1565.9,765 1565.9,773.5 1529.1,773.5 1529.1,765 1474.6,765 1474.6,773.5 1428.7,773.5 
			1428.7,735 1420.2,735 1420.2,696.5 1428.7,696.5 1428.7,658 1420.2,658 1420.2,619.5 1428.7,619.5 1428.7,581.1 		"/>
	</g>
</g>
<g id="Etch">
</g>
<g id="Raster">
</g>
</svg>
