<svg viewBox="0 0 48 48" xmlns="http://www.w3.org/2000/svg" xmlns:xlink="http://www.w3.org/1999/xlink" width="48" height="48">
<defs>



 <path fill="#5d6b82" id="i-2176" d="M47.828,6.598C47.642,6.117,46.991,5,45.005,5c-0.905,0-1.826,0.423-2.734,1.256L17.965,28.575l-3.162-3.167 c8.229-7.414,11.334-7.424,12.572-7.424l0.589,0.006c0.403-0.002,0.766-0.246,0.92-0.619c0.153-0.373,0.068-0.801-0.217-1.087 l-7.969-7.99c-0.285-0.286-0.714-0.372-1.088-0.22c-0.373,0.154-0.618,0.517-0.62,0.92l0.003,0.33 c0.037,1.986,0.135,7.261-16.736,26.007c-0.002,0.003-0.002,0.005-0.005,0.008C1.117,36.473,0.017,37.689,0,38.995 C-0.021,40.693,2.251,42.977,3.988,43C4,43,4.01,43,4.022,43c1.36,0,2.475-1.098,3.552-2.161l12.941-11.886l1.636,1.612 l-1.817,1.668c-0.022,0.019-0.045,0.039-0.066,0.06c-0.664,0.668-1.286,0.706-1.289,0.707c-0.404,0-0.769,0.244-0.924,0.617 c-0.154,0.373-0.068,0.804,0.217,1.09l0.999,1c0.28,0.279,0.697,0.354,1.067,0.213c0.369-0.143,0.62-0.502,0.64-0.896 c0.001-0.025,0.039-0.631,0.647-1.259c0.014-0.014,0.028-0.028,0.043-0.042l23.954-21.984C47.562,9.955,48.388,8.034,47.828,6.598z M20.872,11.3l4.813,4.827c-1.845,0.357-4.908,1.613-10.154,6.012C19.399,16.539,20.544,13.305,20.872,11.3z M6.291,39.295 l-0.121,0.121C5.453,40.121,4.562,41,4.021,41c-0.002,0-0.004,0-0.006,0C3.335,40.99,1.994,39.572,2,39.021 c0.008-0.616,1.239-1.843,1.703-2.306c0.01-0.01,0.013-0.023,0.022-0.033c0.006-0.006,0.013-0.007,0.018-0.013 c0.741-0.823,1.452-1.599,2.148-2.351l2.783,2.787L6.291,39.295z M10.15,35.752l-2.892-2.896c2.261-2.394,4.277-4.408,6.071-6.093 l3.162,3.166L10.15,35.752z M23.626,29.211l-1.637-1.612l1.129-1.036l1.636,1.613L23.626,29.211z M44.27,10.266l-18.04,16.557 l-1.637-1.613L43.624,7.73C44.135,7.26,44.626,7,45.005,7c0.195,0,0.843,0.023,0.96,0.324C46.118,7.719,45.793,8.865,44.27,10.266z" /> 
</defs>

<use x="0" y="0" xlink:href="#i-2176"/>

</svg>