<svg viewBox="0 0 48 48" xmlns="http://www.w3.org/2000/svg" xmlns:xlink="http://www.w3.org/1999/xlink" width="48" height="48">
<defs>



 <path fill="#5d6b82" id="i-2172" d="M34,0c-1.55,0-2,0.451-2,2c0,0.32,0.07,0.621,0.13,0.9c0.298,1.291,0.925,4.15-7.65,15.127l-0.442-0.441L23.023,18.6 l-1.125-1.088l0.812-0.82l-1.422-1.408l-2.981,3.014l1.422,1.406l0.762-0.77l1.117,1.082L20.624,21l0.801,0.803 c-0.464,0.557-0.948,1.131-1.454,1.723l-0.952-0.953l-1,1l-1.086-1.09l0.796-0.805l-1.422-1.406l-2.981,3.012l1.422,1.408 l0.779-0.787l1.079,1.082l-1,1l1.192,1.195c-0.487,0.551-0.99,1.115-1.508,1.693L14,27.586l-0.976,0.977l-1.071-1.096l0.756-0.762 l-1.419-1.41l-2.981,3l1.419,1.41l0.815-0.82l1.066,1.092L10.586,31l1.413,1.414c-0.115,0.146-0.23,0.291-0.339,0.445 c-0.45,0.48-0.9,0.971-1.37,1.471c-1.19,1.27-4.31,4.461-7.73,6.76c-0.05,0.01-0.12,0.01-0.2,0.02C1.72,41.18,0,41.381,0,42.98 C0,44.25,3.74,48,5,48c1.6,0,1.81-1.709,1.88-2.35c0.01-0.07,0.02-0.15,0.03-0.211c1.06-1.59,2.34-3.109,3.61-4.488 c1.22,3.52,4.57,6.059,8.5,6.059c2.056,0,4.006-0.699,5.6-1.975L26,46.414L29.414,43l-1.366-1.367l1.565-1.607l1.386,1.391 l3.414-3.414l-1.425-1.43l1.565-1.607l1.445,1.451l3.414-3.414l-1.492-1.496l0.789-0.805c1.46-1.461,3.29-3.291,3.31-6.682 c0.011-2.389-0.909-4.639-2.6-6.34c-0.11-0.109-0.229-0.209-0.35-0.32c2.04-1.08,3.68-1.639,4.89-1.639c0.47,0,0.81,0.08,1.14,0.15 C45.38,15.93,45.68,16,46,16c1.55,0,2-0.449,2-2C48,10.09,36.56,0,34,0z M10.04,38.541c-1.65,1.709-3.44,3.75-4.87,5.898 c-0.19,0.291-0.23,0.611-0.27,0.98c-0.02,0.09-0.03,0.25-0.06,0.391c-0.75-0.561-2.09-1.9-2.64-2.66 c0.14-0.02,0.29-0.041,0.39-0.051c0.36-0.039,0.68-0.08,0.96-0.27c2.51-1.67,4.82-3.74,6.5-5.4c-0.02,0.201-0.03,0.391-0.03,0.58 C10.02,38.189,10.04,38.359,10.04,38.541z M22.848,23.23l1.94,1.943c-0.558,0.467-1.131,0.951-1.72,1.457l-1.674-1.678 C21.898,24.361,22.383,23.787,22.848,23.23z M26.212,26.602l4.9,4.914l-1.579,1.594l-5.041-5.051 C25.078,27.557,25.651,27.07,26.212,26.602z M18.215,28.604l1.208,1.209c-0.549,0.488-1.111,0.99-1.688,1.51l-1.026-1.027 C17.227,29.719,17.729,29.154,18.215,28.604z M20.839,31.232l5.291,5.303l-1.585,1.596l-5.392-5.393 C19.723,32.223,20.285,31.721,20.839,31.232z M19.02,45.01c-3.86,0-7-3.139-7-7c0-1.518,0.489-2.979,1.398-4.178l0.71,0.711 c-0.719,1.01-1.108,2.209-1.108,3.467c0,3.311,2.69,6,6,6c1.248,0,2.445-0.387,3.468-1.107l0.705,0.705 C21.992,44.512,20.545,45.01,19.02,45.01z M15.02,38.01c0-0.719,0.203-1.404,0.562-2.014l5.456,5.457 c-0.613,0.363-1.3,0.557-2.019,0.557C16.81,42.01,15.02,40.221,15.02,38.01z M26,43.586L13.414,31L14,30.414L26.586,43L26,43.586z M26.629,40.215l-0.666-0.666l1.582-1.596l0.653,0.656L26.629,40.215z M31.001,38.586L18.432,25.988l0.585-0.586L31.587,38 L31.001,38.586z M31.571,35.152l-0.63-0.631l1.579-1.594l0.618,0.619L31.571,35.152z M36.001,33.586L23.45,21.002l0.586-0.586 L36.587,33L36.001,33.586z M29.989,23.553c1.582-1.238,3.056-2.338,4.411-3.283c0.55,0.201,1.05,0.51,1.479,0.932 c0.74,0.76,1.15,1.75,1.14,2.799c-0.02,1.561-0.869,2.43-1.729,3.301l-0.777,0.787L29.989,23.553z M40.02,24.01 C40,26.58,38.69,27.9,37.28,29.301l-0.77,0.789l-0.59-0.59l0.819-0.83c0.95-0.959,2.26-2.279,2.279-4.65 c0.011-1.59-0.6-3.09-1.72-4.219c-0.3-0.311-0.64-0.57-0.99-0.811c0.311-0.189,0.62-0.4,0.91-0.58c0.28,0.211,0.54,0.43,0.78,0.68 C39.31,20.41,40.03,22.16,40.02,24.01z M45.54,13.92c-0.38-0.09-0.89-0.199-1.58-0.199c-2.217,0-6.141,1.133-15.398,8.4 l-2.651-2.658c9.312-11.867,8.61-15.055,8.17-17.002C34.04,2.279,34,2.1,34,2c2.01,0.35,12,9.301,12,12 C45.9,14,45.73,13.961,45.54,13.92z"/> 
</defs>

<use x="0" y="0" xlink:href="#i-2172"/>

</svg>