<svg viewBox="0 0 48 48" xmlns="http://www.w3.org/2000/svg" xmlns:xlink="http://www.w3.org/1999/xlink" width="48" height="48">
<defs>



 <path fill="#5d6b82" id="i-2171" d="M48,2.057c0-1.102-0.897-1.998-2-1.998c-1.07,0-2.25,1.836-2.75,3.056l-1.542-1.82C41.527,1.112,41.276,1,41,1 c-0.553,0-1,0.447-1,1c0,0.276,0.112,0.527,0.294,0.707l1.97,1.669l-0.889,0.887l-1.667-1.969C39.527,3.112,39.276,3,39,3 c-0.553,0-1,0.447-1,1c0,0.276,0.112,0.527,0.294,0.707l1.968,1.668L39.5,7.136l-0.442-0.441l-10.633,8.942 C27.061,14.832,25.176,14.04,23,14.04c-3.26,0-4.75,2.44-5.84,4.22c-0.55,0.91-1.12,1.84-1.59,1.84c-0.08,0-0.16-0.02-0.25-0.05 c-0.54-0.18-1.04-0.04-1.34,0.33c-0.37,0.45-0.26,0.979-0.16,1.44c0.18,0.9,0.27,1.699-0.53,2.5c-1.01,1.01-1.97,1.529-2.83,1.529 c-0.77,0-1.32-0.399-1.64-0.64c-0.22-0.16-0.46-0.34-0.83-0.34l-0.53,0.01l-0.3,0.41c-0.21,0.29-0.24,0.649-0.11,1.06 c0.46,1.351,0.03,1.68-1.83,2.4c-0.4,0.16-0.8,0.32-1.17,0.5C2.44,30.061,0,31.279,0,35.02c0,4.351,4.12,8.521,4.29,8.69 C4.47,43.891,8.64,48,13,48c3.81,0,5.27-2.77,6.34-4.8c0.75-1.41,1.24-2.28,2-2.28c0.12,0,0.26,0.02,0.42,0.061 c0.13,0.029,0.24,0.049,0.35,0.049l0.66-0.02l0.28-0.55c0.29-0.58-0.06-1.06-0.24-1.319c-0.49-0.66-1.49-2.041,0.9-4.42 c0.45-0.451,0.94-0.66,1.54-0.66c0.35,0,0.67,0.069,0.95,0.119c0.27,0.061,0.49,0.09,0.649,0.09c0.551,0,0.841-0.289,0.971-0.459 c0.149-0.221,0.3-0.59,0.13-1.121c-0.17-0.52,0.149-0.85,1.8-1.84c1.79-1.08,4.25-2.56,4.25-5.82c0-2.174-0.791-4.058-1.596-5.422 L41.356,8.99l-0.441-0.44l0.757-0.757l1.62,1.913C43.473,9.888,43.724,10,44,10c0.553,0,1-0.447,1-1 c0-0.276-0.112-0.527-0.294-0.707l-1.912-1.62l0.88-0.878l1.618,1.911C45.473,7.888,45.724,8,46,8c0.553,0,1-0.447,1-1 c0-0.276-0.112-0.527-0.294-0.707l-1.812-1.536C46.132,4.268,48,3.108,48,2.057z M5.71,42.3c-0.007-0.007-0.131-0.134-0.323-0.348 l6.656-7.479l1.491,1.489l-7.564,6.58C5.812,42.398,5.714,42.305,5.71,42.3z M28.72,29.13c-1.189,0.72-2.62,1.58-2.8,2.979 c-0.21-0.029-0.43-0.049-0.67-0.049c-1.13,0-2.13,0.42-2.96,1.25c-1.94,1.939-2.54,3.859-1.81,5.729 c-1.43,0.431-2.21,1.899-2.91,3.229C16.56,44.189,15.61,46,13,46c-1.984,0-4.032-1.16-5.45-2.182l8.916-7.754l-4.509-4.503 L4.12,40.367C3.113,38.955,2,36.959,2,35.02c0-2.33,1.17-3.09,2.94-3.979c0.31-0.16,0.66-0.29,1-0.42c1.19-0.46,2.99-1.16,3.25-2.97 c0.37,0.119,0.79,0.199,1.27,0.199c1.41,0,2.84-0.709,4.25-2.109c1.28-1.29,1.32-2.7,1.18-3.66c1.39-0.18,2.2-1.5,2.97-2.77 c0.98-1.61,2-3.271,4.14-3.271c1.436,0,2.739,0.445,3.787,0.974l-8.266,6.952l5.542,5.535l6.961-8.257 C31.554,22.289,32,23.593,32,25.029C32,27.01,30.7,27.939,28.72,29.13z M23.937,26.548l-2.458-2.455l15.57-13.096L23.937,26.548z M17.707,26.318l4,3.994l-1.413,1.416l-4-3.996L17.707,26.318z"/> 
</defs>

<use x="0" y="0" xlink:href="#i-2171"/>

</svg>