<svg viewBox="0 0 48 48" xmlns="http://www.w3.org/2000/svg" xmlns:xlink="http://www.w3.org/1999/xlink" width="48" height="48">
<defs>



 <path fill="#5d6b82" id="i-2192" d="M40,18.611l-2-0.391V15h-8v1.654l-2-0.391V13h-8v1.698l-2-0.392V11h-8v1.742l-2-0.392V9H0v39h8v-4.351l2-0.392V46h8v-4.307 l2-0.392V44h8v-4.264l2-0.391V42h8v-4.221l2-0.391V40h8V17h-8V18.611z M40,20.649v0.962l-2-0.391v-0.963L40,20.649z M40,23.649 v8.701l-2,0.392v-9.484L40,23.649z M30,18.693v0.961l-2-0.391v-0.962L30,18.693z M30,21.693v12.613l-2,0.392V21.302L30,21.693z M20,16.736v0.962l-2-0.392v-0.961L20,16.736z M20,19.736v16.527l-2,0.391V19.346L20,19.736z M10,14.779v0.963l-2-0.392v-0.962 L10,14.779z M10,17.779v20.441l-2,0.391V17.389L10,17.779z M6,46H2V11h4V46z M8,41.611v-0.962l2-0.392v0.963L8,41.611z M16,44h-4V13 h4V44z M18,39.654v-0.961l2-0.392v0.962L18,39.654z M26,42h-4V15h4V42z M28,37.698v-0.962l2-0.391v0.961L28,37.698z M36,40h-4V17h4 V40z M38,35.742v-0.963l2-0.391v0.962L38,35.742z M42,19h4v19h-4V19z M3,42c0-0.553,0.447-1,1-1s1,0.447,1,1s-0.447,1-1,1 S3,42.553,3,42z M13,40c0-0.553,0.447-1,1-1s1,0.447,1,1s-0.447,1-1,1S13,40.553,13,40z M23,38c0-0.553,0.447-1,1-1s1,0.447,1,1 s-0.447,1-1,1S23,38.553,23,38z M33,36c0-0.553,0.447-1,1-1s1,0.447,1,1s-0.447,1-1,1S33,36.553,33,36z M45,34c0,0.553-0.447,1-1,1 s-1-0.447-1-1s0.447-1,1-1S45,33.447,45,34z M3,14c0-0.553,0.447-1,1-1s1,0.447,1,1s-0.447,1-1,1S3,14.553,3,14z M13,16 c0-0.553,0.447-1,1-1s1,0.447,1,1s-0.447,1-1,1S13,16.553,13,16z M23,18c0-0.553,0.447-1,1-1s1,0.447,1,1s-0.447,1-1,1 S23,18.553,23,18z M33,20c0-0.553,0.447-1,1-1s1,0.447,1,1s-0.447,1-1,1S33,20.553,33,20z M45,22c0,0.553-0.447,1-1,1s-1-0.447-1-1 s0.447-1,1-1S45,21.447,45,22z M45,5c-1.302,0-2.401,0.838-2.815,2H10v2h32.185c0.414,1.162,1.514,2,2.815,2c1.654,0,3-1.346,3-3 S46.654,5,45,5z M45,9c-0.552,0-1-0.449-1-1s0.448-1,1-1s1,0.449,1,1S45.552,9,45,9z M15.816,2C15.401,0.838,14.302,0,13,0 c-1.654,0-3,1.346-3,3s1.346,3,3,3c1.302,0,2.401-0.838,2.816-2H48V2H15.816z M13,4c-0.551,0-1-0.449-1-1s0.449-1,1-1s1,0.449,1,1 S13.551,4,13,4z"/> 
</defs>

<use x="0" y="0" xlink:href="#i-2192"/>

</svg>